<?xml version="1.0" encoding="UTF-8" standalone="no"?><!DOCTYPE svg PUBLIC "-//W3C//DTD SVG 1.1//EN" "http://www.w3.org/Graphics/SVG/1.1/DTD/svg11.dtd"><svg width="100%" height="100%" viewBox="0 0 240 240" version="1.1" xmlns="http://www.w3.org/2000/svg" xmlns:xlink="http://www.w3.org/1999/xlink" xml:space="preserve" xmlns:serif="http://www.serif.com/" style="fill-rule:evenodd;clip-rule:evenodd;stroke-linecap:round;stroke-linejoin:round;stroke-miterlimit:1.5;"><g><path d="M6.526,168.945c-0.509,0 -0.998,-0.202 -1.358,-0.562c-0.36,-0.36 -0.562,-0.848 -0.562,-1.358c0,-9.717 0,-53.015 0,-53.015l9.424,0c0.676,-0 1.302,0.355 1.649,0.936c3.417,5.722 21.345,35.75 21.345,35.75l0,-34.766c-0,-0.509 0.202,-0.998 0.562,-1.358c0.36,-0.36 0.848,-0.562 1.358,-0.562c1.781,0 4.418,0 6.199,0c0.509,-0 0.998,0.202 1.358,0.562c0.36,0.36 0.562,0.848 0.562,1.358c-0,9.717 -0,53.015 -0,53.015l-9.757,0c-0.673,0 -1.297,-0.353 -1.645,-0.929c-3.389,-5.627 -21.015,-34.894 -21.015,-34.894l0,33.904c-0,0.509 -0.202,0.998 -0.562,1.358c-0.36,0.36 -0.848,0.562 -1.358,0.562l-6.199,0Z" style="fill:#264653;fill-rule:nonzero;"/><path d="M64.303,140.68c0,0 -5.165,-0.985 -7.645,-1.458c-0.339,-0.065 -0.634,-0.272 -0.809,-0.57c-0.175,-0.298 -0.214,-0.656 -0.106,-0.984c1.04,-3.153 2.641,-5.537 4.807,-7.151c2.455,-1.83 6.103,-2.745 10.943,-2.745c4.396,0 7.669,0.55 9.821,1.651c2.151,1.1 3.665,2.498 4.542,4.192c0.877,1.694 1.315,4.804 1.315,9.329l-0.105,12.167c0,3.462 0.158,6.015 0.473,7.66c0.316,1.644 0.906,3.406 1.771,5.286l-8.895,0c-0.516,0 -0.974,-0.33 -1.138,-0.819c-0.196,-0.607 -0.417,-1.361 -0.665,-2.26c-0.164,-0.618 -0.281,-1.026 -0.351,-1.224c-1.684,1.731 -3.484,3.029 -5.401,3.895c-1.917,0.866 -3.963,1.298 -6.138,1.298c-3.835,0 -6.857,-1.1 -9.067,-3.301c-2.21,-2.201 -3.314,-4.983 -3.314,-8.346c0,-2.226 0.503,-4.21 1.508,-5.954c1.005,-1.743 2.414,-3.079 4.226,-4.006c1.812,-0.927 4.425,-1.737 7.839,-2.43c4.606,-0.915 7.798,-1.768 9.575,-2.559l0,-1.039c0,-2.003 -0.468,-3.431 -1.403,-4.284c-0.935,-0.853 -2.701,-1.28 -5.296,-1.28c-1.754,0 -3.122,0.365 -4.104,1.094c-0.982,0.73 -1.777,2.009 -2.385,3.839Zm13.188,8.457c-1.263,0.445 -3.262,0.977 -5.998,1.595c-2.736,0.618 -4.525,1.224 -5.366,1.818c-1.286,0.964 -1.929,2.189 -1.929,3.672c0,1.459 0.514,2.72 1.543,3.784c1.029,1.063 2.338,1.595 3.928,1.595c1.777,0 3.472,-0.618 5.086,-1.855c1.193,-0.94 1.976,-2.09 2.35,-3.45c0.257,-0.89 0.386,-2.584 0.386,-5.082l0,-2.077Z" style="fill:#264653;fill-rule:nonzero;"/><path d="M106.473,168.945l-14.516,-40.305l8.774,0c1.051,-0 1.987,0.693 2.336,1.729l6.345,18.841l2.009,6.869c0.531,-1.746 0.866,-2.897 1.005,-3.454c0.323,-1.139 0.67,-2.277 1.039,-3.416l6.411,-18.848c0.351,-1.032 1.285,-1.722 2.333,-1.722l8.882,-0l-14.617,40.305l-10.002,0Z" style="fill:#264653;"/><path d="M135.214,168.945l0,-38.5c-0,-0.508 0.202,-0.994 0.561,-1.353c0.359,-0.359 0.846,-0.561 1.353,-0.561l5.9,0c0.509,-0 0.998,0.202 1.358,0.562c0.36,0.36 0.562,0.848 0.562,1.358l-0,38.493l-9.733,0Z" style="fill:#264653;fill-rule:nonzero;"/><path d="M152.13,148.067c0,-3.508 0.806,-6.903 2.417,-10.186c1.611,-3.282 3.893,-5.464 6.847,-7.193c2.954,-1.729 6.251,-1.946 9.894,-1.946c5.627,0 10.238,1.313 13.834,5.235c3.596,3.921 5.393,8.553 5.393,14.541c0,6.039 -1.815,11.044 -5.446,15.015c-3.631,3.971 -8.201,5.957 -13.711,5.957c-3.409,0 -6.66,-0.827 -9.754,-2.481c-3.094,-1.654 -5.446,-4.078 -7.057,-7.273c-1.611,-3.195 -2.417,-7.085 -2.417,-11.67Zm10.086,0.564c0,3.959 0.876,6.991 2.627,9.096c1.751,2.105 3.911,3.157 6.479,3.157c2.568,0 4.722,-1.052 6.462,-3.157c1.739,-2.105 2.609,-5.162 2.609,-9.171c0,-3.909 -0.87,-6.592 -2.609,-8.697c-1.739,-2.105 -3.893,-3.157 -6.462,-3.157c-2.568,0 -4.728,1.052 -6.479,3.157c-1.751,2.105 -2.627,4.813 -2.627,8.772Z" style="fill:#264653;fill-rule:nonzero;"/><path d="M197.01,148.067c0,-3.508 0.806,-6.903 2.417,-10.186c1.611,-3.282 3.893,-5.464 6.847,-7.193c2.954,-1.729 6.251,-2.27 9.894,-2.27c5.627,0 10.238,1.637 13.834,5.558c3.596,3.921 5.393,8.553 5.393,14.541c0,6.039 -1.815,11.044 -5.446,15.015c-3.631,3.971 -8.201,5.957 -13.711,5.957c-3.409,0 -6.66,-0.827 -9.754,-2.481c-3.094,-1.654 -5.446,-4.078 -7.057,-7.273c-1.611,-3.195 -2.417,-7.085 -2.417,-11.67Zm10.086,0.564c0,3.959 0.876,6.991 2.627,9.096c1.751,2.105 3.911,3.157 6.479,3.157c2.568,0 4.722,-1.052 6.462,-3.157c1.739,-2.105 2.609,-5.162 2.609,-9.171c0,-3.909 -0.87,-6.592 -2.609,-8.697c-1.739,-2.105 -3.893,-3.157 -6.462,-3.157c-2.568,0 -4.728,1.052 -6.479,3.157c-1.751,2.105 -2.627,4.813 -2.627,8.772Z" style="fill:#264653;fill-rule:nonzero;"/></g><ellipse cx="215.849" cy="120.6" rx="6.191" ry="6.472" style="fill:#f4bd56;"/><ellipse cx="140.081" cy="120.66" rx="6.191" ry="6.472" style="fill:#f4bd56;"/><path d="M207.412,124.69l-59.177,-0.099c-0.167,-6.293 -1.712,-11.901 -8.291,-11.901c-6.58,0 -7.607,5.707 -7.774,12l-18.737,-0c-4.495,0 -8.145,-3.512 -8.145,-7.837l0,-38.506c0,-4.326 3.649,-7.837 8.145,-7.837l104.511,0c4.495,0 6.635,2.814 8.629,7.837l8.282,22.921l-0.046,15.585c0,4.326 -3.649,7.837 -8.145,7.837l-2.776,-0c-0.175,-6.286 -1.509,-12.308 -8.083,-12.308c-6.574,0 -8.217,6.022 -8.392,12.308Zm-27.303,-44.899c0,-1.439 -1.214,-2.607 -2.71,-2.607l-59.075,-0c-1.495,0 -2.71,1.168 -2.71,2.607l0,17.123c0,1.439 1.214,2.607 2.71,2.607l59.075,0c1.495,0 2.71,-1.168 2.71,-2.607l0,-17.123Zm38.673,0.064c-0.681,-1.606 -3.174,-2.655 -4.697,-2.655l-21.716,0c-1.523,0 -2.759,1.19 -2.759,2.655l0,17.05c0,1.465 1.236,2.655 2.759,2.655l29.709,0c1.523,0 2.692,-0.884 2.759,-2.655c0.067,-1.771 -6.056,-17.05 -6.056,-17.05Z" style="fill:#18caa9;"/><path d="M222.04,73.937c-0,0 8.813,-0.627 11.025,-0.784c0.279,-0.02 0.524,0.184 0.555,0.463c0.165,1.548 0.601,6.207 -0.056,6.851c-0.79,0.773 -0.331,-7.351 -0.331,-7.351" style="fill:none;stroke:#18caa9;stroke-width:1.7px;"/></svg>