<?xml version="1.0" encoding="UTF-8" standalone="no"?>
<svg width="100%" height="100%" viewBox="97.288 62.51 145.567 72.622" version="1.1" xmlns="http://www.w3.org/2000/svg" xml:space="preserve" style="fill-rule:evenodd;clip-rule:evenodd;stroke-linecap:round;stroke-linejoin:round;stroke-miterlimit:1.5;">
  <ellipse cx="215.849" cy="120.6" rx="6.191" ry="6.472" style="fill:#f4bd56;"/>
  <ellipse cx="140.081" cy="120.66" rx="6.191" ry="6.472" style="fill:#f4bd56;"/>
  <path d="M207.412,124.69l-59.177,-0.099c-0.167,-6.293 -1.712,-11.901 -8.291,-11.901c-6.58,0 -7.607,5.707 -7.774,12l-18.737,-0c-4.495,0 -8.145,-3.512 -8.145,-7.837l0,-38.506c0,-4.326 3.649,-7.837 8.145,-7.837l104.511,0c4.495,0 6.635,2.814 8.629,7.837l8.282,22.921l-0.046,15.585c0,4.326 -3.649,7.837 -8.145,7.837l-2.776,-0c-0.175,-6.286 -1.509,-12.308 -8.083,-12.308c-6.574,0 -8.217,6.022 -8.392,12.308Zm-27.303,-44.899c0,-1.439 -1.214,-2.607 -2.71,-2.607l-59.075,-0c-1.495,0 -2.71,1.168 -2.71,2.607l0,17.123c0,1.439 1.214,2.607 2.71,2.607l59.075,0c1.495,0 2.71,-1.168 2.71,-2.607l0,-17.123Zm38.673,0.064c-0.681,-1.606 -3.174,-2.655 -4.697,-2.655l-21.716,0c-1.523,0 -2.759,1.19 -2.759,2.655l0,17.05c0,1.465 1.236,2.655 2.759,2.655l29.709,0c1.523,0 2.692,-0.884 2.759,-2.655c0.067,-1.771 -6.056,-17.05 -6.056,-17.05Z" style="fill:#18caa9;"/>
  <path d="M222.04,73.937c-0,0 8.813,-0.627 11.025,-0.784c0.279,-0.02 0.524,0.184 0.555,0.463c0.165,1.548 0.601,6.207 -0.056,6.851c-0.79,0.773 -0.331,-7.351 -0.331,-7.351" style="fill:none;stroke:#18caa9;stroke-width:1.7px;"/>
</svg>
